<svg width="640" height="520" viewBox="0 0 640 520" fill="none" xmlns="http://www.w3.org/2000/svg">
  <defs>
    <radialGradient id="bg" cx="0" cy="0" r="1" gradientUnits="userSpaceOnUse" gradientTransform="translate(320 250) rotate(90) scale(250 310)">
      <stop stop-color="#F4FFF6"/>
      <stop offset="1" stop-color="#E2F5E7"/>
    </radialGradient>
    <linearGradient id="orb" x1="160" y1="70" x2="480" y2="420" gradientUnits="userSpaceOnUse">
      <stop stop-color="#F8FFF8"/>
      <stop offset="1" stop-color="#D9F3DF"/>
    </linearGradient>
    <linearGradient id="leaf" x1="0" y1="0" x2="1" y2="1">
      <stop stop-color="#96EA8C"/>
      <stop offset="1" stop-color="#47AF55"/>
    </linearGradient>
  </defs>

  <rect width="640" height="520" rx="32" fill="url(#bg)"/>
  <ellipse cx="320" cy="260" rx="212" ry="184" fill="url(#orb)"/>

  <path d="M224 388h192" stroke="#CDEBD4" stroke-width="10" stroke-linecap="round"/>
  <path d="M322 384V250" stroke="#5AAE62" stroke-width="12" stroke-linecap="round"/>
  <path d="M322 285c-58 0-92-46-86-96 53 2 85 36 86 96Z" fill="url(#leaf)"/>
  <path d="M322 244c58 0 92-46 86-96-53 2-85 36-86 96Z" fill="url(#leaf)"/>

  <g opacity="0.75" stroke="#95D79E" stroke-width="6" stroke-linecap="round">
    <path d="M206 342h20"/>
    <path d="M420 192h20"/>
    <path d="M446 232h14"/>
  </g>

  <g transform="translate(398 318) rotate(-9)">
    <rect width="152" height="62" rx="28" fill="#DDF7E2"/>
    <text x="76" y="39" text-anchor="middle" fill="#2D8D47" font-family="Arial, sans-serif" font-size="27" font-weight="700">gradual</text>
  </g>
</svg>
